<mxfile host="Electron" modified="2024-04-09T07:20:22.535Z" agent="Mozilla/5.0 (Macintosh; Intel Mac OS X 10_15_7) AppleWebKit/537.36 (KHTML, like Gecko) draw.io/24.1.0 Chrome/120.0.6099.109 Electron/28.1.0 Safari/537.36" etag="KIG_lBT5thNOmtGMfnDA" version="24.1.0" type="device">
  <diagram name="Page-1" id="WYB66Dv_T5oNxg7J8qw1">
    <mxGraphModel dx="482" dy="390" grid="1" gridSize="10" guides="1" tooltips="1" connect="1" arrows="1" fold="1" page="1" pageScale="1" pageWidth="850" pageHeight="1100" math="0" shadow="0">
      <root>
        <mxCell id="0" />
        <mxCell id="1" parent="0" />
        <mxCell id="cxAtfRaasT6_QiwZEYkY-1" value="" style="rounded=1;whiteSpace=wrap;html=1;arcSize=7;fontFamily=Computer Modern;fontSize=14;dashed=1;fillColor=none;" parent="1" vertex="1">
          <mxGeometry x="140" y="270" width="140" height="220" as="geometry" />
        </mxCell>
        <mxCell id="cxAtfRaasT6_QiwZEYkY-2" value="LLVM" style="text;html=1;align=left;verticalAlign=middle;resizable=0;points=[];autosize=1;strokeColor=none;fillColor=none;fontStyle=1;fontFamily=Computer Modern;fontSize=14;" parent="1" vertex="1">
          <mxGeometry x="150" y="270" width="60" height="30" as="geometry" />
        </mxCell>
        <mxCell id="n1RfJM-ye2wLgYrq1Suq-1" style="edgeStyle=orthogonalEdgeStyle;rounded=0;orthogonalLoop=1;jettySize=auto;html=1;" parent="1" source="cxAtfRaasT6_QiwZEYkY-3" target="cxAtfRaasT6_QiwZEYkY-7" edge="1">
          <mxGeometry relative="1" as="geometry" />
        </mxCell>
        <mxCell id="cxAtfRaasT6_QiwZEYkY-3" value="C/C++ source code" style="rounded=0;whiteSpace=wrap;html=1;fontFamily=Computer Modern;fontSize=14;" parent="1" vertex="1">
          <mxGeometry x="160" y="200" width="100" height="40" as="geometry" />
        </mxCell>
        <mxCell id="cxAtfRaasT6_QiwZEYkY-13" style="edgeStyle=orthogonalEdgeStyle;rounded=0;orthogonalLoop=1;jettySize=auto;html=1;entryX=0.5;entryY=0;entryDx=0;entryDy=0;fontSize=14;fontFamily=Computer Modern;" parent="1" source="cxAtfRaasT6_QiwZEYkY-7" target="cxAtfRaasT6_QiwZEYkY-10" edge="1">
          <mxGeometry relative="1" as="geometry" />
        </mxCell>
        <mxCell id="cxAtfRaasT6_QiwZEYkY-7" value="Clang" style="rounded=1;whiteSpace=wrap;html=1;fontFamily=Computer Modern;fontSize=14;" parent="1" vertex="1">
          <mxGeometry x="150" y="300" width="120" height="30" as="geometry" />
        </mxCell>
        <mxCell id="cxAtfRaasT6_QiwZEYkY-14" style="edgeStyle=orthogonalEdgeStyle;rounded=0;orthogonalLoop=1;jettySize=auto;html=1;entryX=0.5;entryY=0;entryDx=0;entryDy=0;fontSize=14;fontFamily=Computer Modern;" parent="1" source="cxAtfRaasT6_QiwZEYkY-10" target="cxAtfRaasT6_QiwZEYkY-11" edge="1">
          <mxGeometry relative="1" as="geometry" />
        </mxCell>
        <mxCell id="cxAtfRaasT6_QiwZEYkY-10" value="Optimizations" style="rounded=1;whiteSpace=wrap;html=1;fontFamily=Computer Modern;fontSize=14;" parent="1" vertex="1">
          <mxGeometry x="150" y="350" width="120" height="30" as="geometry" />
        </mxCell>
        <mxCell id="cxAtfRaasT6_QiwZEYkY-15" style="edgeStyle=orthogonalEdgeStyle;rounded=0;orthogonalLoop=1;jettySize=auto;html=1;entryX=0.5;entryY=0;entryDx=0;entryDy=0;fontSize=14;fontFamily=Computer Modern;" parent="1" source="cxAtfRaasT6_QiwZEYkY-11" target="cxAtfRaasT6_QiwZEYkY-12" edge="1">
          <mxGeometry relative="1" as="geometry" />
        </mxCell>
        <mxCell id="cxAtfRaasT6_QiwZEYkY-11" value="Stack sanitizer" style="rounded=1;whiteSpace=wrap;html=1;fontStyle=0;fontFamily=Computer Modern;fontSize=14;" parent="1" vertex="1">
          <mxGeometry x="150" y="400" width="120" height="30" as="geometry" />
        </mxCell>
        <mxCell id="n1RfJM-ye2wLgYrq1Suq-50" style="edgeStyle=orthogonalEdgeStyle;rounded=0;orthogonalLoop=1;jettySize=auto;html=1;" parent="1" source="cxAtfRaasT6_QiwZEYkY-12" target="cxAtfRaasT6_QiwZEYkY-19" edge="1">
          <mxGeometry relative="1" as="geometry" />
        </mxCell>
        <mxCell id="cxAtfRaasT6_QiwZEYkY-12" value="Codegen" style="rounded=1;whiteSpace=wrap;html=1;fontStyle=0;fontFamily=Computer Modern;fontSize=14;" parent="1" vertex="1">
          <mxGeometry x="150" y="450" width="120" height="30" as="geometry" />
        </mxCell>
        <mxCell id="n1RfJM-ye2wLgYrq1Suq-15" style="edgeStyle=orthogonalEdgeStyle;rounded=0;orthogonalLoop=1;jettySize=auto;html=1;" parent="1" source="cxAtfRaasT6_QiwZEYkY-19" target="n1RfJM-ye2wLgYrq1Suq-18" edge="1">
          <mxGeometry relative="1" as="geometry" />
        </mxCell>
        <mxCell id="cxAtfRaasT6_QiwZEYkY-19" value="Hardened WASM" style="rounded=0;whiteSpace=wrap;html=1;fontFamily=Computer Modern;fontSize=14;" parent="1" vertex="1">
          <mxGeometry x="320" y="295" width="100" height="40" as="geometry" />
        </mxCell>
        <mxCell id="UlODbdXHelF-bM2IOqHd-3" value="&lt;b&gt;wasmtime&lt;/b&gt;" style="rounded=1;whiteSpace=wrap;html=1;fontFamily=Computer Modern;fontSize=14;verticalAlign=top;arcSize=12;fillColor=none;align=left;spacingLeft=8;" parent="1" vertex="1">
          <mxGeometry x="480" y="245" width="120" height="140" as="geometry" />
        </mxCell>
        <mxCell id="UlODbdXHelF-bM2IOqHd-11" value="" style="endArrow=none;dashed=1;html=1;rounded=0;fontSize=14;fontFamily=Computer Modern;" parent="1" edge="1">
          <mxGeometry width="50" height="50" relative="1" as="geometry">
            <mxPoint x="440" y="510" as="sourcePoint" />
            <mxPoint x="440" y="190" as="targetPoint" />
          </mxGeometry>
        </mxCell>
        <mxCell id="UlODbdXHelF-bM2IOqHd-12" value="Build" style="text;html=1;align=right;verticalAlign=middle;resizable=0;points=[];autosize=1;strokeColor=none;fillColor=none;fontStyle=1;fontFamily=Computer Modern;fontSize=14;spacing=2;spacingLeft=10;spacingRight=10;" parent="1" vertex="1">
          <mxGeometry x="370" y="190" width="70" height="30" as="geometry" />
        </mxCell>
        <mxCell id="UlODbdXHelF-bM2IOqHd-13" value="Execution" style="text;html=1;align=left;verticalAlign=middle;resizable=0;points=[];autosize=1;strokeColor=none;fillColor=none;fontStyle=1;fontFamily=Computer Modern;fontSize=14;spacing=2;spacingLeft=10;spacingRight=10;" parent="1" vertex="1">
          <mxGeometry x="440" y="190" width="100" height="30" as="geometry" />
        </mxCell>
        <mxCell id="n1RfJM-ye2wLgYrq1Suq-18" value="WASM" style="rounded=1;whiteSpace=wrap;html=1;fillColor=none;dashed=1;verticalAlign=top;fontFamily=Computer Modern;" parent="1" vertex="1">
          <mxGeometry x="490" y="285" width="100" height="60" as="geometry" />
        </mxCell>
        <mxCell id="n1RfJM-ye2wLgYrq1Suq-19" value="" style="rounded=0;whiteSpace=wrap;html=1;" parent="1" vertex="1">
          <mxGeometry x="500" y="320" width="80" height="15" as="geometry" />
        </mxCell>
        <mxCell id="n1RfJM-ye2wLgYrq1Suq-23" value="" style="rounded=0;whiteSpace=wrap;html=1;fillColor=#f8cecc;strokeColor=#000000;" parent="1" vertex="1">
          <mxGeometry x="490" y="357.5" width="100" height="15" as="geometry" />
        </mxCell>
        <mxCell id="n1RfJM-ye2wLgYrq1Suq-20" value="" style="rounded=0;whiteSpace=wrap;html=1;" parent="1" vertex="1">
          <mxGeometry x="520" y="357.5" width="50" height="15" as="geometry" />
        </mxCell>
        <mxCell id="n1RfJM-ye2wLgYrq1Suq-21" value="" style="endArrow=none;html=1;rounded=0;entryX=0;entryY=1;entryDx=0;entryDy=0;exitX=0;exitY=0;exitDx=0;exitDy=0;" parent="1" source="n1RfJM-ye2wLgYrq1Suq-20" target="n1RfJM-ye2wLgYrq1Suq-19" edge="1">
          <mxGeometry width="50" height="50" relative="1" as="geometry">
            <mxPoint x="530" y="505" as="sourcePoint" />
            <mxPoint x="580" y="455" as="targetPoint" />
          </mxGeometry>
        </mxCell>
        <mxCell id="n1RfJM-ye2wLgYrq1Suq-22" value="" style="endArrow=none;html=1;rounded=0;entryX=1;entryY=1;entryDx=0;entryDy=0;exitX=1;exitY=0;exitDx=0;exitDy=0;" parent="1" source="n1RfJM-ye2wLgYrq1Suq-20" target="n1RfJM-ye2wLgYrq1Suq-19" edge="1">
          <mxGeometry width="50" height="50" relative="1" as="geometry">
            <mxPoint x="525" y="368" as="sourcePoint" />
            <mxPoint x="510" y="345" as="targetPoint" />
          </mxGeometry>
        </mxCell>
        <mxCell id="n1RfJM-ye2wLgYrq1Suq-24" value="" style="rounded=0;whiteSpace=wrap;html=1;fillColor=#d5e8d4;strokeColor=#000000;" parent="1" vertex="1">
          <mxGeometry x="505" y="320" width="15" height="15" as="geometry" />
        </mxCell>
        <mxCell id="n1RfJM-ye2wLgYrq1Suq-25" value="" style="rounded=0;whiteSpace=wrap;html=1;fillColor=#fff2cc;strokeColor=#000000;" parent="1" vertex="1">
          <mxGeometry x="527.5" y="320" width="25" height="15" as="geometry" />
        </mxCell>
        <mxCell id="n1RfJM-ye2wLgYrq1Suq-26" value="" style="rounded=0;whiteSpace=wrap;html=1;fillColor=#ffe6cc;strokeColor=#000000;" parent="1" vertex="1">
          <mxGeometry x="560" y="320" width="10" height="15" as="geometry" />
        </mxCell>
        <mxCell id="n1RfJM-ye2wLgYrq1Suq-27" value="" style="rounded=0;whiteSpace=wrap;html=1;fillColor=#d5e8d4;strokeColor=#000000;" parent="1" vertex="1">
          <mxGeometry x="525" y="357.5" width="10" height="15" as="geometry" />
        </mxCell>
        <mxCell id="n1RfJM-ye2wLgYrq1Suq-28" value="" style="rounded=0;whiteSpace=wrap;html=1;fillColor=#fff2cc;strokeColor=#000000;" parent="1" vertex="1">
          <mxGeometry x="540" y="357.5" width="20" height="15" as="geometry" />
        </mxCell>
        <mxCell id="n1RfJM-ye2wLgYrq1Suq-29" value="" style="rounded=0;whiteSpace=wrap;html=1;fillColor=#ffe6cc;strokeColor=#000000;" parent="1" vertex="1">
          <mxGeometry x="562.5" y="357.5" width="5" height="15" as="geometry" />
        </mxCell>
        <mxCell id="n1RfJM-ye2wLgYrq1Suq-30" value="" style="endArrow=none;dashed=1;html=1;rounded=0;fontFamily=Computer Modern;fontSource=https%3A%2F%2Ffonts.googleapis.com%2Fcss%3Ffamily%3DComputer%2BModern;" parent="1" edge="1">
          <mxGeometry width="50" height="50" relative="1" as="geometry">
            <mxPoint x="470" y="395" as="sourcePoint" />
            <mxPoint x="610" y="395" as="targetPoint" />
          </mxGeometry>
        </mxCell>
        <mxCell id="n1RfJM-ye2wLgYrq1Suq-38" value="" style="rounded=0;whiteSpace=wrap;html=1;fillStyle=auto;fillColor=#B3B3B3;" parent="1" vertex="1">
          <mxGeometry x="470" y="415" width="140" height="15" as="geometry" />
        </mxCell>
        <mxCell id="n1RfJM-ye2wLgYrq1Suq-40" value="Virtual Memory" style="text;html=1;align=center;verticalAlign=middle;resizable=0;points=[];autosize=1;strokeColor=none;fillColor=none;fontFamily=Computer Modern;fontSource=https%3A%2F%2Ffonts.googleapis.com%2Fcss%3Ffamily%3DComputer%2BModern;" parent="1" vertex="1">
          <mxGeometry x="487.5" y="392" width="100" height="30" as="geometry" />
        </mxCell>
        <mxCell id="n1RfJM-ye2wLgYrq1Suq-41" value="" style="endArrow=none;html=1;rounded=0;entryX=0;entryY=1;entryDx=0;entryDy=0;exitX=0;exitY=0;exitDx=0;exitDy=0;" parent="1" source="n1RfJM-ye2wLgYrq1Suq-42" target="n1RfJM-ye2wLgYrq1Suq-23" edge="1">
          <mxGeometry width="50" height="50" relative="1" as="geometry">
            <mxPoint x="488.75" y="508" as="sourcePoint" />
            <mxPoint x="468.75" y="485" as="targetPoint" />
          </mxGeometry>
        </mxCell>
        <mxCell id="n1RfJM-ye2wLgYrq1Suq-42" value="" style="rounded=0;whiteSpace=wrap;html=1;fillStyle=auto;fillColor=#f8cecc;strokeColor=#000000;" parent="1" vertex="1">
          <mxGeometry x="500" y="415" width="80" height="15" as="geometry" />
        </mxCell>
        <mxCell id="n1RfJM-ye2wLgYrq1Suq-43" value="" style="endArrow=none;html=1;rounded=0;entryX=1;entryY=1;entryDx=0;entryDy=0;exitX=1;exitY=0;exitDx=0;exitDy=0;" parent="1" source="n1RfJM-ye2wLgYrq1Suq-42" target="n1RfJM-ye2wLgYrq1Suq-23" edge="1">
          <mxGeometry width="50" height="50" relative="1" as="geometry">
            <mxPoint x="510" y="425" as="sourcePoint" />
            <mxPoint x="500" y="383" as="targetPoint" />
          </mxGeometry>
        </mxCell>
        <mxCell id="n1RfJM-ye2wLgYrq1Suq-44" value="" style="rounded=0;whiteSpace=wrap;html=1;strokeColor=#000000;" parent="1" vertex="1">
          <mxGeometry x="517.5" y="415" width="50" height="15" as="geometry" />
        </mxCell>
        <mxCell id="n1RfJM-ye2wLgYrq1Suq-45" value="" style="rounded=0;whiteSpace=wrap;html=1;fillColor=#d5e8d4;strokeColor=#000000;" parent="1" vertex="1">
          <mxGeometry x="522.5" y="415" width="10" height="15" as="geometry" />
        </mxCell>
        <mxCell id="n1RfJM-ye2wLgYrq1Suq-46" value="" style="rounded=0;whiteSpace=wrap;html=1;fillColor=#fff2cc;strokeColor=#000000;" parent="1" vertex="1">
          <mxGeometry x="537.5" y="415" width="20" height="15" as="geometry" />
        </mxCell>
        <mxCell id="n1RfJM-ye2wLgYrq1Suq-47" value="" style="rounded=0;whiteSpace=wrap;html=1;fillColor=#ffe6cc;strokeColor=#000000;" parent="1" vertex="1">
          <mxGeometry x="560" y="415" width="5" height="15" as="geometry" />
        </mxCell>
        <mxCell id="n1RfJM-ye2wLgYrq1Suq-48" value="" style="endArrow=none;dashed=1;html=1;rounded=0;fontFamily=Computer Modern;fontSource=https%3A%2F%2Ffonts.googleapis.com%2Fcss%3Ffamily%3DComputer%2BModern;" parent="1" edge="1">
          <mxGeometry width="50" height="50" relative="1" as="geometry">
            <mxPoint x="470" y="440" as="sourcePoint" />
            <mxPoint x="610" y="440" as="targetPoint" />
          </mxGeometry>
        </mxCell>
        <mxCell id="n1RfJM-ye2wLgYrq1Suq-49" value="MTE" style="text;html=1;align=center;verticalAlign=middle;resizable=0;points=[];autosize=1;strokeColor=none;fillColor=none;fontStyle=0;fontFamily=Computer Modern;fontSource=https%3A%2F%2Ffonts.googleapis.com%2Fcss%3Ffamily%3DComputer%2BModern;" parent="1" vertex="1">
          <mxGeometry x="515" y="440" width="50" height="30" as="geometry" />
        </mxCell>
      </root>
    </mxGraphModel>
  </diagram>
</mxfile>
